<svg xmlns="http://www.w3.org/2000/svg" xmlns:xlink="http://www.w3.org/1999/xlink" viewBox="0 0 85.04 56.69"><defs><style>.cls-1{fill:none;}.cls-2{clip-path:url(#clip-path);}.cls-3{fill:#fff;}.cls-4{fill:#003478;}.cls-5{fill:#c60c30;}</style><clipPath id="clip-path"><path class="cls-1" d="M70.87,28.35A28.35,28.35,0,1,1,42.52,0,28.35,28.35,0,0,1,70.87,28.35Z"/></clipPath></defs><title>자산 2</title><g id="레이어_2" data-name="레이어 2"><g id="레이어_1-2" data-name="레이어 1"><g class="cls-2"><rect class="cls-3" width="85.04" height="56.69"/><rect x="16.24" y="13.8" width="11.79" height="1.92" transform="translate(-2.4 25.04) rotate(-56.43)"/><rect x="18.69" y="15.43" width="11.79" height="1.92" transform="translate(-2.68 27.78) rotate(-56.37)"/><rect x="21.14" y="17.06" width="11.79" height="1.92" transform="translate(-2.95 30.53) rotate(-56.33)"/><rect x="53.61" y="40.39" width="5.42" height="1.92" transform="translate(-9.31 65.33) rotate(-56.36)"/><rect x="57.14" y="35.09" width="5.42" height="1.92" transform="translate(-3.34 65.86) rotate(-56.32)"/><rect x="55.88" y="41.91" width="5.42" height="1.92" transform="translate(-9.59 67.8) rotate(-56.28)"/><rect x="59.42" y="36.6" width="5.42" height="1.92" transform="translate(-3.58 68.43) rotate(-56.32)"/><rect x="58.16" y="43.42" width="5.42" height="1.92" transform="translate(-9.78 70.52) rotate(-56.4)"/><rect x="61.69" y="38.12" width="5.42" height="1.92" transform="translate(-3.83 71) rotate(-56.32)"/><rect x="59.11" y="17.96" width="1.92" height="5.42" transform="translate(-1.47 36.42) rotate(-33.34)"/><rect x="55.6" y="12.63" width="1.92" height="5.42" transform="translate(0.88 33.61) rotate(-33.34)"/><rect x="59.64" y="10.61" width="1.92" height="11.79" transform="translate(0.91 36.04) rotate(-33.36)"/><rect x="63.67" y="14.95" width="1.92" height="5.42" transform="translate(0.94 38.45) rotate(-33.36)"/><rect x="60.17" y="9.63" width="1.92" height="5.42" transform="translate(3.26 35.59) rotate(-33.3)"/><rect x="21.21" y="35.89" width="1.92" height="11.79" transform="translate(-19.3 19.03) rotate(-33.3)"/><rect x="25.78" y="32.88" width="1.92" height="11.79" transform="translate(-16.91 21.08) rotate(-33.34)"/><rect x="25.25" y="40.23" width="1.92" height="5.42" transform="translate(-19.29 21.47) rotate(-33.34)"/><rect x="21.75" y="34.91" width="1.92" height="5.42" transform="translate(-16.96 18.71) rotate(-33.39)"/><path class="cls-4" d="M56.77,28.37a14.2,14.2,0,1,1-14.2-14.2A14.2,14.2,0,0,1,56.77,28.37Z"/><path class="cls-5" d="M56.77,28.37A14.2,14.2,0,0,0,30.15,21.5c-3.16,8.11,7.27,14,12.39,6.92,5.27-7.16,15.56-1.21,12.4,6.91A14.14,14.14,0,0,0,56.77,28.37Z"/></g></g></g></svg>