<svg xmlns="http://www.w3.org/2000/svg" xmlns:xlink="http://www.w3.org/1999/xlink" viewBox="0 0 85.04 56.69"><defs><style>.cls-1{fill:none;}.cls-2{clip-path:url(#clip-path);}.cls-3{fill:#fe0000;}.cls-4{fill:#000095;}.cls-5{fill:#fff;}</style><clipPath id="clip-path" transform="translate(0 0)"><path class="cls-1" d="M70.87,28.35A28.35,28.35,0,1,1,42.52,0,28.35,28.35,0,0,1,70.87,28.35Z"/></clipPath></defs><title>자산 19</title><g id="레이어_2" data-name="레이어 2"><g id="레이어_1-2" data-name="레이어 1"><g class="cls-2"><rect class="cls-3" width="85.04" height="56.69"/><rect class="cls-4" width="42.55" height="28.35"/><path class="cls-5" d="M35.11,15A5.32,5.32,0,1,1,29.8,9.68,5.31,5.31,0,0,1,35.11,15ZM28,9.28,24.58,5.9l1.18,4.69A5.89,5.89,0,0,1,28,9.28Zm3.09-.12L29.8,4.51,28.49,9.16a5.8,5.8,0,0,1,2.62,0ZM40.29,15l-4.65-1.31a5.8,5.8,0,0,1,0,2.62ZM35,5.9,31.57,9.28a5.86,5.86,0,0,1,2.27,1.31ZM25.39,11,20.7,9.78l3.38,3.45A5.86,5.86,0,0,1,25.39,11Zm10.13,2.26L38.9,9.78,34.21,11A6,6,0,0,1,35.52,13.22ZM24.08,16.77,20.7,20.22,25.39,19A5.86,5.86,0,0,1,24.08,16.77ZM34.21,19l4.69,1.18-3.38-3.45A5.86,5.86,0,0,1,34.21,19Zm-2.64,1.68L35,24.1l-1.18-4.69A5.86,5.86,0,0,1,31.57,20.72ZM23.81,15A5.66,5.66,0,0,1,24,13.69L19.31,15,24,16.31A5.66,5.66,0,0,1,23.81,15Zm.77,9.1L28,20.72a5.86,5.86,0,0,1-2.27-1.31Zm3.91-3.26,1.31,4.65,1.31-4.65a5.8,5.8,0,0,1-2.62,0Z" transform="translate(0 0)"/></g></g></g></svg>